<svg xmlns="http://www.w3.org/2000/svg" version="1.1" xmlns:xlink="http://www.w3.org/1999/xlink" xmlns:svgjs="http://svgjs.dev/svgjs" width="1000" height="1193" viewBox="0 0 1000 1193"><g transform="matrix(1,0,0,1,-0.19964389233945212,0.4829959514170241)"><svg viewBox="0 0 207 247" data-background-color="#000000" preserveAspectRatio="xMidYMid meet" height="1193" width="1000" xmlns="http://www.w3.org/2000/svg" xmlns:xlink="http://www.w3.org/1999/xlink"><g id="tight-bounds" transform="matrix(1,0,0,1,0.04132628571426267,-0.09999999999999432)"><svg viewBox="0 0 206.91734742857147 247.2" height="247.2" width="206.91734742857147"><g><svg viewBox="0 0 206.91734742857147 247.2" height="247.2" width="206.91734742857147"><g><svg viewBox="0 0 206.91734742857147 247.2" height="247.2" width="206.91734742857147"><g><svg viewBox="0 0 206.91734742857147 247.2" height="247.2" width="206.91734742857147"><g><svg viewBox="0 0 206.91734742857147 247.2" height="247.2" width="206.91734742857147"><rect width="206.91734742857147" height="247.2" x="0" y="0" opacity="1" fill="#fa4238" data-fill-palette-color="tertiary"></rect><g transform="matrix(1,0,0,1,23.607600000000012,23.607599999999998)"><svg width="159.70214742857146" viewBox="1.149999976158142 -35 27.950000762939453 35" height="199.9848" data-palette-color="#fdf8f1"><path d="M17.4 0L12.8 0Q12.3 0 11.95-0.35 11.6-0.7 11.6-1.2L11.6-1.2 11.6-28.85 2.35-28.85Q1.85-28.85 1.5-29.2 1.15-29.55 1.15-30.05L1.15-30.05 1.15-33.75Q1.15-34.3 1.5-34.65 1.85-35 2.35-35L2.35-35 27.85-35Q28.4-35 28.75-34.65 29.1-34.3 29.1-33.75L29.1-33.75 29.1-30.05Q29.1-29.55 28.75-29.2 28.4-28.85 27.85-28.85L27.85-28.85 18.65-28.85 18.65-1.2Q18.65-0.7 18.3-0.35 17.95 0 17.4 0L17.4 0Z" opacity="1" transform="matrix(1,0,0,1,0,0)" fill="#fdf8f1" class="undefined-text-0" data-fill-palette-color="quaternary" id="text-0"></path></svg></g></svg></g></svg></g></svg></g><g></g></svg></g><defs></defs></svg><rect width="206.91734742857147" height="247.2" fill="none" stroke="none" visibility="hidden"></rect></g></svg></g></svg>