<svg xmlns="http://www.w3.org/2000/svg" version="1.1" xmlns:xlink="http://www.w3.org/1999/xlink" xmlns:svgjs="http://svgjs.dev/svgjs" width="1000" height="1000" viewBox="0 0 1000 1000"><rect width="1000" height="1000" fill="#ffffff"></rect><g transform="matrix(0.7,0,0,0.7,149.57575757575756,282.1265587044535)"><svg viewBox="0 0 396 247" data-background-color="#000000" preserveAspectRatio="xMidYMid meet" height="623" width="1000" xmlns="http://www.w3.org/2000/svg" xmlns:xlink="http://www.w3.org/1999/xlink"><g id="tight-bounds" transform="matrix(1,0,0,1,0.2400000000000091,-0.09999999999999432)"><svg viewBox="0 0 395.52 247.2" height="247.2" width="395.52"><g><svg></svg></g><g><svg viewBox="0 0 395.52 247.2" height="247.2" width="395.52"><g transform="matrix(1,0,0,1,130.3630188679245,37.08)"><svg viewBox="0 0 134.79396226415096 173.04" height="173.04" width="134.79396226415096"><g><svg viewBox="0 0 134.79396226415096 173.04" height="173.04" width="134.79396226415096"><g><svg viewBox="0 0 134.79396226415096 173.04" height="173.04" width="134.79396226415096"><g><svg viewBox="0 0 134.79396226415096 173.04" height="173.04" width="134.79396226415096"><g><svg viewBox="0 0 134.79396226415096 173.04" height="173.04" width="134.79396226415096"><g><svg viewBox="0 0 134.79396226415096 173.04" height="173.04" width="134.79396226415096"><g transform="matrix(1,0,0,1,0,0)"><svg width="134.79396226415096" viewBox="1.9500000476837158 -37.099998474121094 28.899999618530273 37.099998474121094" height="173.04" data-palette-color="#ffffff"><path d="M1.95-33.2L1.95-36.4Q1.95-36.75 2.13-36.93 2.3-37.1 2.7-37.1L2.7-37.1 30.15-37.1Q30.55-37.1 30.7-36.93 30.85-36.75 30.85-36.4L30.85-36.4 30.85-33.2Q30.85-32.6 30.15-32.6L30.15-32.6 20.25-32.6Q19.7-32.6 19.7-32.15L19.7-32.15 19.7-0.75Q19.7 0 19.05 0L19.05 0 14.35 0Q13.7 0 13.7-0.7L13.7-0.7 13.7-32.05Q13.7-32.6 13.15-32.6L13.15-32.6 2.65-32.6Q1.95-32.6 1.95-33.2L1.95-33.2Z" opacity="1" transform="matrix(1,0,0,1,0,0)" fill="#000000" class="undefined-text-0" data-fill-palette-color="primary" id="text-0"></path></svg></g></svg></g></svg></g></svg></g></svg></g></svg></g></svg></g><g><path xmlns="http://www.w3.org/2000/svg" d="M0 247.2v-247.2h395.52v247.2zM379.915 231.595v-215.99h-364.31v215.99z" fill="#ffffff" fill-rule="nonzero" stroke="none" stroke-width="1" stroke-linecap="butt" stroke-linejoin="miter" stroke-miterlimit="10" stroke-dasharray="" stroke-dashoffset="0" font-family="none" font-weight="none" font-size="none" text-anchor="none" style="mix-blend-mode: normal" data-fill-palette-color="tertiary"></path></g></svg></g><defs></defs></svg><rect width="395.52" height="247.2" fill="none" stroke="none" visibility="hidden"></rect></g></svg></g></svg>